<svg width="512" height="513" viewBox="0 0 512 513" fill="none" xmlns="http://www.w3.org/2000/svg">
    <path fill-rule="evenodd" clip-rule="evenodd" d="M305.589 336.494C273.41 362.186 232.623 377.543 188.25 377.543C84.2826 377.543 0 293.231 0 189.227C0 85.2222 84.2826 0.909912 188.25 0.909912C292.218 0.909912 376.501 85.2222 376.501 189.227C376.501 232.878 361.654 273.06 336.737 304.996L502.185 459.423C514.963 471.35 515.312 491.498 502.954 503.86C490.528 516.291 470.252 515.859 458.366 502.912L305.589 336.494ZM328.808 189.227C328.808 266.882 265.878 329.833 188.25 329.833C110.623 329.833 47.6932 266.882 47.6932 189.227C47.6932 111.572 110.623 48.6199 188.25 48.6199C265.878 48.6199 328.808 111.572 328.808 189.227Z" fill="white"/>
</svg>
